<?xml version="1.0" encoding="UTF-8"?>
<svg version="1.1" viewBox="0 0 18.603 19.564" xmlns="http://www.w3.org/2000/svg">
<g transform="translate(-230.7 -170.22)">
<g fill-rule="evenodd" stroke-dasharray="" stroke-miterlimit="10" style="mix-blend-mode:normal" data-paper-data='{"isPaintingLayer":true}'>
<g stroke-width="2">
<path d="m231.7 180.37c0-0.92963 0.75363-1.6833 1.6833-1.6833h10.254c0.44644 0 0.87457 0.17735 1.1903 0.49303 0.31568 0.31568 0.49303 0.74382 0.49303 1.1903v6.7329c0 0.92963-0.75363 1.6833-1.6833 1.6833h-10.254c-0.92963 0-1.6833-0.75363-1.6833-1.6833z" fill="#fff" stroke-linecap="square"/>
<path d="m231.7 180.37c0-0.92963 0.75363-1.6833 1.6833-1.6833h10.254c0.44644 0 0.87457 0.17735 1.1903 0.49303 0.31568 0.31568 0.49303 0.74382 0.49303 1.1903v6.7329c0 0.92963-0.75363 1.6833-1.6833 1.6833h-10.254c-0.92963 0-1.6833-0.75363-1.6833-1.6833z" fill="none" stroke="#cc3d3d" stroke-linejoin="round"/>
<path d="m231.7 176.25c0-1.7359 1.4252-3.1432 3.1833-3.1432 0.84423 0 1.654 0.33115 2.2509 0.92059 0.59698 0.58946 0.9324 1.389 0.9324 2.2225 0 1.7359-1.4252 3.1432-3.1833 3.1432-1.7581 0-3.1833-1.4072-3.1833-3.1432z" fill="#fff" stroke-linecap="square"/>
<path d="m231.72 176.25c0-1.7359 1.4252-3.1432 3.1833-3.1432 0.84423 0 1.654 0.33115 2.2509 0.92059 0.59698 0.58946 0.9324 1.389 0.9324 2.2225 0 1.7359-1.4252 3.1432-3.1833 3.1432-1.7581 0-3.1833-1.4072-3.1833-3.1432z" fill="none" stroke="#cc3d3d" stroke-linejoin="round"/>
<path d="m237.41 175.31c0-2.2577 1.7704-4.088 3.9542-4.088 1.0487 0 2.0545 0.43069 2.7961 1.1973 0.74155 0.76664 1.1582 1.8064 1.1582 2.8906 0 2.2577-1.7704 4.088-3.9542 4.088s-3.9542-1.8302-3.9542-4.088z" fill="#fff" stroke-linecap="square"/>
<path d="m237.41 175.31c0-2.2577 1.7704-4.088 3.9542-4.088 1.0487 0 2.0545 0.43069 2.7961 1.1973 0.74155 0.76664 1.1582 1.8064 1.1582 2.8906 0 2.2577-1.7704 4.088-3.9542 4.088s-3.9542-1.8302-3.9542-4.088z" fill="none" stroke="#cc3d3d" stroke-linejoin="round"/>
<path d="m248.3 187.42-4.9682-3.6854 4.9682-3.6854z" fill="#fff" stroke-linecap="square"/>
<path d="m248.3 187.42-4.9682-3.6854 4.9682-3.6854z" fill="none" stroke="#cc3d3d" stroke-linejoin="round"/>
</g>
<path d="m231.7 180.37c0-0.92963 0.75363-1.6833 1.6833-1.6833h10.254c0.44644 0 0.87457 0.17735 1.1903 0.49303 0.31568 0.31568 0.49303 0.74382 0.49303 1.1903v6.7329c0 0.92963-0.75363 1.6833-1.6833 1.6833h-10.254c-0.92963 0-1.6833-0.75363-1.6833-1.6833z" fill="#fff" stroke-linecap="square"/>
<path d="m231.7 180.37c0-0.92963 0.75363-1.6833 1.6833-1.6833h10.254c0.44644 0 0.87457 0.17735 1.1903 0.49303 0.31568 0.31568 0.49303 0.74382 0.49303 1.1903v6.7329c0 0.92963-0.75363 1.6833-1.6833 1.6833h-10.254c-0.92963 0-1.6833-0.75363-1.6833-1.6833z" fill="none" stroke="#fff" stroke-linejoin="round" stroke-width=".5"/>
<path d="m231.7 176.25c0-1.7359 1.4252-3.1432 3.1833-3.1432 0.84423 0 1.654 0.33115 2.2509 0.92059 0.59698 0.58946 0.9324 1.389 0.9324 2.2225 0 1.7359-1.4252 3.1432-3.1833 3.1432-1.7581 0-3.1833-1.4072-3.1833-3.1432z" fill="#fff" stroke-linecap="square"/>
<path d="m231.72 176.25c0-1.7359 1.4252-3.1432 3.1833-3.1432 0.84423 0 1.654 0.33115 2.2509 0.92059 0.59698 0.58946 0.9324 1.389 0.9324 2.2225 0 1.7359-1.4252 3.1432-3.1833 3.1432-1.7581 0-3.1833-1.4072-3.1833-3.1432z" fill="none" stroke="#fff" stroke-linejoin="round" stroke-width=".5"/>
<path d="m237.41 175.31c0-2.2577 1.7704-4.088 3.9542-4.088 1.0487 0 2.0545 0.43069 2.7961 1.1973 0.74155 0.76664 1.1582 1.8064 1.1582 2.8906 0 2.2577-1.7704 4.088-3.9542 4.088s-3.9542-1.8302-3.9542-4.088z" fill="#fff" stroke-linecap="square"/>
<path d="m237.41 175.31c0-2.2577 1.7704-4.088 3.9542-4.088 1.0487 0 2.0545 0.43069 2.7961 1.1973 0.74155 0.76664 1.1582 1.8064 1.1582 2.8906 0 2.2577-1.7704 4.088-3.9542 4.088s-3.9542-1.8302-3.9542-4.088z" fill="none" stroke="#fff" stroke-linejoin="round" stroke-width=".5"/>
<path d="m248.3 187.42-4.9682-3.6854 4.9682-3.6854z" fill="#fff" stroke-linecap="square"/>
<path d="m248.3 187.42-4.9682-3.6854 4.9682-3.6854z" fill="none" stroke="#fff" stroke-linejoin="round" stroke-width=".5"/>
</g>
</g>
</svg>
